<?xml version="1.0" encoding="UTF-8"?>
<svg id="Ebene_2" data-name="Ebene 2" xmlns="http://www.w3.org/2000/svg" viewBox="0 0 340.43 380.94">
  <g id="Ebene_1-2" data-name="Ebene 1">
    <g>
      <path d="M191.21,0c45.12,16.39,71.11,61.5,52.97,108.04-5.62,14.41-19.33,25.39-25.8,39.69-12.85,28.43-10.8,52.31,5.57,78.5h-107.16c16.37-26.19,18.42-50.07,5.57-78.5-6.46-14.3-20.18-25.28-25.8-39.69C78.46,61.59,104.7,16.54,149.54,0h41.67Z"/>
      <path d="M44.58,247.78h251.59c31.7-.35,65.18,74.77,27.65,79.8l-309.65-.22c-30.9-5.74-6.94-73.31,30.4-79.58Z"/>
      <path d="M316.23,345.3c-1.04,10.35,4.56,31.43-8.04,35.12l-273.18.52c-16.16-3.03-9.26-24.16-10.5-35.64h291.72Z"/>
    </g>
  </g>
</svg>